<svg width="800" height="800" viewBox="0 0 800 800" xmlns="http://www.w3.org/2000/svg" xmlns:xlink="http://www.w3.org/1999/xlink"><defs><clipPath id="clip-1"><rect x="0" y="0" width="800" height="800" fill="none"></rect></clipPath></defs><g clip-path="url(#clip-1)" id="hearth" fill="none" fill-rule="nonzero" stroke="none" stroke-width="1" stroke-linecap="butt" stroke-linejoin="miter" stroke-miterlimit="10" stroke-dasharray="" stroke-dashoffset="0" font-family="none" font-weight="none" font-size="none" text-anchor="none" style="mix-blend-mode: normal"><rect x="0" y="0" width="800" height="800" fill="none"></rect><path d="M598.53,608.5801l93.7511,-105.0827c-25.7056,89.9695 -584.9075,94.994 -597.4225,165.9125l-23.2539,118.8868c8.6785,-50.1548 418.2607,-79.4107 526.9254,-179.7166z" fill="#ff5e5e"></path><path d="M606.8888,332.739l45.9456,-92.9093c-64.264,117.5112 -471.6325,78.0051 -492.7005,160.1703l-41.6679,160.1703c8.6742,-72.3173 436.4523,-110.4078 488.4229,-227.4313z" fill="#ff855e"></path><path d="M512.5169,107.8824l42.4014,-112.9884c-12.5893,88.7275 -302.0937,40.1859 -313.3576,129.355l-48.7262,169.0531c13.2804,-93.5978 237.2614,-22.4508 319.6824,-185.4197z" fill="#ffab5e"></path></g></svg>